<svg version="1.1" id="Layer_1" xmlns="http://www.w3.org/2000/svg" xmlns:xlink="http://www.w3.org/1999/xlink" x="0px" y="0px"
	 width="100%" viewBox="0 0 500 500" enable-background="new 0 0 500 500" xml:space="preserve">
<path fill="none" opacity="1.000000" stroke="none" 
	d="
M501.000000,186.000000 
	C501.000000,291.333313 501.000000,396.166626 501.000000,500.999939 
	C334.333405,500.999969 167.666794,500.999969 1.000146,501.000000 
	C1.000097,334.333435 1.000097,167.666870 1.000049,1.000235 
	C167.666519,1.000157 334.333038,1.000157 500.999786,1.000078 
	C501.000000,62.500000 501.000000,124.000000 501.000000,186.000000 
M196.500549,359.000275 
	C212.260117,359.000275 228.019684,359.000275 243.831512,359.000275 
	C243.831512,244.219437 243.831512,130.109116 243.831512,15.850664 
	C221.779099,15.850664 199.924194,15.850664 177.716354,15.850664 
	C177.716354,69.386566 177.716354,122.501686 177.716354,175.616821 
	C177.437836,175.647934 177.159332,175.679062 176.880814,175.710190 
	C166.626389,122.364723 156.371948,69.019257 146.159637,15.892900 
	C122.209953,15.892900 98.830696,15.892900 75.504440,15.892900 
	C75.504440,130.444839 75.504440,244.532028 75.504440,358.752319 
	C97.897003,358.752319 119.982254,358.752319 142.661804,358.752319 
	C142.661804,303.526001 142.661804,248.544205 142.661804,193.562408 
	C143.029205,193.529053 143.396622,193.495682 143.764023,193.462311 
	C154.798843,248.614609 165.833664,303.766907 176.884705,359.000275 
	C183.519760,359.000275 189.510300,359.000275 196.500549,359.000275 
M434.999237,112.572205 
	C432.665924,96.631050 431.629028,80.363297 427.713379,64.820770 
	C420.821838,37.465603 403.239929,20.199993 374.841522,14.686358 
	C359.923645,11.790004 345.043671,11.545545 330.136261,13.855593 
	C303.380280,18.001686 284.204681,32.176430 273.742737,57.489182 
	C267.873322,71.690262 265.327179,86.641884 265.261200,101.845436 
	C265.021820,157.006790 264.711029,212.176666 265.503571,267.327881 
	C265.718628,282.292542 268.848724,297.404114 272.233276,312.081024 
	C275.577820,326.584534 283.213959,339.203918 295.221222,348.616180 
	C311.195312,361.137970 329.709625,363.564301 349.125305,361.477051 
	C362.403778,360.049591 374.237335,354.902710 383.696747,345.274414 
	C387.964233,340.930695 391.583740,335.950378 395.688110,331.030121 
	C399.100006,339.393921 402.404114,347.697113 405.924866,355.907349 
	C406.461060,357.157745 407.976227,358.828796 409.080902,358.861176 
	C417.510925,359.108093 425.951447,358.996582 434.415680,358.996582 
	C434.415680,291.999176 434.415680,225.616943 434.415680,159.267349 
	C406.435089,159.267349 378.829193,159.267349 351.098358,159.267349 
	C351.098358,178.932190 351.098358,198.328323 351.098358,218.230331 
	C357.128723,218.230331 362.876984,218.230331 368.647766,218.230331 
	C368.647766,238.028046 368.722046,257.319061 368.572540,276.608337 
	C368.548401,279.721252 367.710175,282.872742 366.933624,285.926392 
	C364.746429,294.527496 359.194519,298.997437 351.028717,298.967285 
	C342.846313,298.937073 336.951813,294.491638 335.201019,285.870819 
	C333.885712,279.394165 333.116394,272.690643 333.096710,266.085144 
	C332.934875,211.755600 332.984375,157.425323 333.048798,103.095367 
	C333.053497,99.121574 333.355530,95.089592 334.073181,91.186493 
	C335.996094,80.728401 342.534851,75.476128 352.876404,75.674583 
	C361.355713,75.837311 365.719116,80.055824 367.310425,90.980614 
	C368.216644,97.202095 368.042755,103.595253 368.152527,109.914627 
	C368.278992,117.192802 368.181885,124.474861 368.181885,131.818268 
	C390.871063,131.818268 412.939941,131.818268 435.019714,131.818268 
	C435.019714,125.502609 435.019714,119.528221 434.999237,112.572205 
M173.853363,446.500000 
	C173.853363,417.757629 173.853363,389.015259 173.853363,360.293121 
	C165.654465,360.293121 158.120758,360.293121 150.029343,360.293121 
	C150.029343,367.382263 150.029343,374.057739 150.029343,380.866730 
	C146.988281,379.417969 144.592560,377.806488 141.954346,377.098236 
	C127.806877,373.300446 116.429001,382.635498 116.153908,398.582611 
	C115.852425,416.059174 115.916313,433.545593 116.110847,451.024536 
	C116.158333,455.291687 116.915756,459.666473 118.086998,463.781036 
	C120.368111,471.794556 125.999588,475.573883 134.299271,476.066986 
	C141.359116,476.486542 146.294647,473.479767 150.032288,466.572052 
	C150.227737,469.998230 150.356705,472.259186 150.495132,474.685730 
	C158.349396,474.685730 165.894119,474.685730 173.853271,474.685730 
	C173.853271,465.413879 173.853271,456.456940 173.853363,446.500000 
M208.659470,476.007965 
	C232.223083,476.008301 243.965256,461.194977 239.067719,437.587097 
	C231.548981,437.587097 224.028320,437.587097 216.036179,437.587097 
	C216.036179,443.005524 216.443161,448.038727 215.825790,452.942993 
	C215.595139,454.775269 213.191803,457.250732 211.374420,457.667328 
	C209.997772,457.982910 206.549545,455.574402 206.478622,454.246948 
	C206.023483,445.727936 206.246246,437.172729 206.246246,428.185303 
	C217.229477,428.185303 227.997955,428.185303 239.538101,428.185303 
	C239.538101,418.804718 240.120499,409.816772 239.411087,400.932007 
	C238.123260,384.803192 230.999222,377.710968 214.721207,376.461578 
	C198.050919,375.182129 183.285492,381.730408 182.313950,400.698883 
	C181.497437,416.640778 181.535904,432.694458 182.382309,448.635681 
	C183.354446,466.944672 191.399353,474.929718 208.659470,476.007965 
M265.692505,475.005798 
	C272.973969,475.005798 280.255402,475.005798 287.666779,475.005798 
	C292.982910,442.227386 298.206055,410.022186 303.455048,377.657623 
	C295.082733,377.657623 287.695770,377.657623 280.200317,377.657623 
	C278.324310,394.212677 276.490326,410.397278 274.656311,426.581848 
	C273.264435,426.057587 273.057800,425.657196 273.017426,425.240723 
	C271.620331,410.831879 270.319763,396.412689 268.745789,382.023376 
	C268.563507,380.356903 266.956299,377.556061 265.872986,377.488953 
	C259.098480,377.069305 252.285080,377.277008 245.351669,377.277008 
	C245.297928,378.371460 245.152283,379.030457 245.251373,379.650330 
	C250.159775,410.355774 255.160370,441.046844 259.918945,471.775391 
	C260.464539,475.298492 262.372375,475.089325 265.692505,475.005798 
M382.432465,384.987946 
	C384.331573,376.812164 386.230682,368.636353 388.154358,360.354797 
	C379.843597,360.354797 372.120605,360.354797 364.437836,360.354797 
	C359.937408,379.659332 355.503693,398.580963 351.118805,417.513885 
	C346.715393,436.526855 342.360687,455.551086 337.944244,474.746033 
	C346.113922,474.746033 353.712952,474.746033 361.578217,474.746033 
	C368.479889,444.971466 375.338867,415.381134 382.432465,384.987946 
M416.448090,404.085297 
	C409.002197,399.639465 401.556305,395.193634 393.318665,390.275055 
	C393.318665,396.806610 393.690125,402.136292 393.210083,407.388214 
	C392.765076,412.257141 394.454163,414.952271 398.860626,416.988708 
	C404.423798,419.559753 409.640289,422.880920 415.611389,426.216522 
	C408.537506,430.194702 402.412170,433.536041 396.415955,437.094879 
	C395.149506,437.846466 393.531250,439.360474 393.480865,440.581238 
	C393.197632,447.445129 393.344299,454.326721 393.344299,461.303101 
	C394.358490,461.141327 394.730713,461.180756 394.986572,461.026794 
	C403.672119,455.800964 412.046906,449.944794 421.115051,445.503754 
	C428.727692,441.775574 430.569611,436.803864 431.095398,428.552338 
	C431.862427,416.514771 428.594208,408.534485 416.448090,404.085297 
M91.507233,429.083252 
	C90.079758,428.247528 88.652283,427.411804 86.501450,426.152588 
	C93.005669,422.532898 99.084549,419.219940 105.078827,415.760437 
	C106.428635,414.981415 108.466347,413.733887 108.514389,412.629303 
	C108.825668,405.472565 108.673958,398.295715 108.673958,390.267944 
	C96.198730,397.752441 84.764847,404.510101 73.491684,411.526001 
	C72.303467,412.265503 71.527168,414.506134 71.472916,416.081726 
	C71.249771,422.562469 71.119125,429.071960 71.531952,435.533997 
	C71.662300,437.574249 73.099411,440.272430 74.783035,441.350403 
	C84.858345,447.801025 95.175522,453.874359 105.428986,460.045319 
	C106.210838,460.515869 107.127106,460.763092 108.724327,461.419800 
	C108.724327,454.859528 108.575539,448.931213 108.786087,443.015717 
	C108.893936,439.985504 108.033821,438.108826 105.196823,436.717346 
	C100.728256,434.525665 96.474388,431.896271 91.507233,429.083252 
z"/>
<path fill="#25B868" opacity="1.000000" stroke="none" 
	d="
M196.000702,359.000275 
	C189.510300,359.000275 183.519760,359.000275 176.884705,359.000275 
	C165.833664,303.766907 154.798843,248.614609 143.764023,193.462311 
	C143.396622,193.495682 143.029205,193.529053 142.661804,193.562408 
	C142.661804,248.544205 142.661804,303.526001 142.661804,358.752319 
	C119.982254,358.752319 97.897003,358.752319 75.504440,358.752319 
	C75.504440,244.532028 75.504440,130.444839 75.504440,15.892900 
	C98.830696,15.892900 122.209953,15.892900 146.159637,15.892900 
	C156.371948,69.019257 166.626389,122.364723 176.880814,175.710190 
	C177.159332,175.679062 177.437836,175.647934 177.716354,175.616821 
	C177.716354,122.501686 177.716354,69.386566 177.716354,15.850664 
	C199.924194,15.850664 221.779099,15.850664 243.831512,15.850664 
	C243.831512,130.109116 243.831512,244.219437 243.831512,359.000275 
	C228.019684,359.000275 212.260117,359.000275 196.000702,359.000275 
z"/>
<path fill="#25B868" opacity="1.000000" stroke="none" 
	d="
M435.009460,113.063019 
	C435.019714,119.528221 435.019714,125.502609 435.019714,131.818268 
	C412.939941,131.818268 390.871063,131.818268 368.181885,131.818268 
	C368.181885,124.474861 368.278992,117.192802 368.152527,109.914627 
	C368.042755,103.595253 368.216644,97.202095 367.310425,90.980614 
	C365.719116,80.055824 361.355713,75.837311 352.876404,75.674583 
	C342.534851,75.476128 335.996094,80.728401 334.073181,91.186493 
	C333.355530,95.089592 333.053497,99.121574 333.048798,103.095367 
	C332.984375,157.425323 332.934875,211.755600 333.096710,266.085144 
	C333.116394,272.690643 333.885712,279.394165 335.201019,285.870819 
	C336.951813,294.491638 342.846313,298.937073 351.028717,298.967285 
	C359.194519,298.997437 364.746429,294.527496 366.933624,285.926392 
	C367.710175,282.872742 368.548401,279.721252 368.572540,276.608337 
	C368.722046,257.319061 368.647766,238.028046 368.647766,218.230331 
	C362.876984,218.230331 357.128723,218.230331 351.098358,218.230331 
	C351.098358,198.328323 351.098358,178.932190 351.098358,159.267349 
	C378.829193,159.267349 406.435089,159.267349 434.415680,159.267349 
	C434.415680,225.616943 434.415680,291.999176 434.415680,358.996582 
	C425.951447,358.996582 417.510925,359.108093 409.080902,358.861176 
	C407.976227,358.828796 406.461060,357.157745 405.924866,355.907349 
	C402.404114,347.697113 399.100006,339.393921 395.688110,331.030121 
	C391.583740,335.950378 387.964233,340.930695 383.696747,345.274414 
	C374.237335,354.902710 362.403778,360.049591 349.125305,361.477051 
	C329.709625,363.564301 311.195312,361.137970 295.221222,348.616180 
	C283.213959,339.203918 275.577820,326.584534 272.233276,312.081024 
	C268.848724,297.404114 265.718628,282.292542 265.503571,267.327881 
	C264.711029,212.176666 265.021820,157.006790 265.261200,101.845436 
	C265.327179,86.641884 267.873322,71.690262 273.742737,57.489182 
	C284.204681,32.176430 303.380280,18.001686 330.136261,13.855593 
	C345.043671,11.545545 359.923645,11.790004 374.841522,14.686358 
	C403.239929,20.199993 420.821838,37.465603 427.713379,64.820770 
	C431.629028,80.363297 432.665924,96.631050 435.009460,113.063019 
z"/>
<path fill="#F82D89" opacity="1.000000" stroke="none" 
	d="
M173.853317,447.000000 
	C173.853271,456.456940 173.853271,465.413879 173.853271,474.685730 
	C165.894119,474.685730 158.349396,474.685730 150.495132,474.685730 
	C150.356705,472.259186 150.227737,469.998230 150.032288,466.572052 
	C146.294647,473.479767 141.359116,476.486542 134.299271,476.066986 
	C125.999588,475.573883 120.368111,471.794556 118.086998,463.781036 
	C116.915756,459.666473 116.158333,455.291687 116.110847,451.024536 
	C115.916313,433.545593 115.852425,416.059174 116.153908,398.582611 
	C116.429001,382.635498 127.806877,373.300446 141.954346,377.098236 
	C144.592560,377.806488 146.988281,379.417969 150.029343,380.866730 
	C150.029343,374.057739 150.029343,367.382263 150.029343,360.293121 
	C158.120758,360.293121 165.654465,360.293121 173.853363,360.293121 
	C173.853363,389.015259 173.853363,417.757629 173.853317,447.000000 
M150.210724,402.812744 
	C150.000259,401.335449 150.265442,399.489044 149.470795,398.465088 
	C148.194107,396.820038 146.289032,394.817078 144.512497,394.674683 
	C143.106827,394.562042 141.317383,396.867126 140.048691,398.390381 
	C139.389038,399.182373 139.278793,400.605347 139.275360,401.744354 
	C139.228088,417.390564 139.061737,433.040588 139.375427,448.680634 
	C139.449539,452.375031 139.603638,457.840210 145.129257,457.570007 
	C150.573792,457.303772 150.080276,452.029053 150.126114,448.188354 
	C150.302933,433.374359 150.227676,418.557373 150.210724,402.812744 
z"/>
<path fill="#F82D89" opacity="1.000000" stroke="none" 
	d="
M208.195389,476.004211 
	C191.399353,474.929718 183.354446,466.944672 182.382309,448.635681 
	C181.535904,432.694458 181.497437,416.640778 182.313950,400.698883 
	C183.285492,381.730408 198.050919,375.182129 214.721207,376.461578 
	C230.999222,377.710968 238.123260,384.803192 239.411087,400.932007 
	C240.120499,409.816772 239.538101,418.804718 239.538101,428.185303 
	C227.997955,428.185303 217.229477,428.185303 206.246246,428.185303 
	C206.246246,437.172729 206.023483,445.727936 206.478622,454.246948 
	C206.549545,455.574402 209.997772,457.982910 211.374420,457.667328 
	C213.191803,457.250732 215.595139,454.775269 215.825790,452.942993 
	C216.443161,448.038727 216.036179,443.005524 216.036179,437.587097 
	C224.028320,437.587097 231.548981,437.587097 239.067719,437.587097 
	C243.965256,461.194977 232.223083,476.008301 208.195389,476.004211 
M205.387924,401.213074 
	C205.387924,406.286713 205.387924,411.360352 205.387924,416.422974 
	C209.251175,416.422974 212.600800,416.422974 215.962036,416.422974 
	C215.962036,410.376373 216.325699,404.719299 215.760040,399.156708 
	C215.568283,397.271088 213.192642,394.440857 211.515320,394.208862 
	C209.913101,393.987244 207.839554,396.492493 206.150558,397.998108 
	C205.651367,398.443115 205.753799,399.563019 205.387924,401.213074 
z"/>
<path fill="#F82D89" opacity="1.000000" stroke="none" 
	d="
M265.220825,475.005768 
	C262.372375,475.089325 260.464539,475.298492 259.918945,471.775391 
	C255.160370,441.046844 250.159775,410.355774 245.251373,379.650330 
	C245.152283,379.030457 245.297928,378.371460 245.351669,377.277008 
	C252.285080,377.277008 259.098480,377.069305 265.872986,377.488953 
	C266.956299,377.556061 268.563507,380.356903 268.745789,382.023376 
	C270.319763,396.412689 271.620331,410.831879 273.017426,425.240723 
	C273.057800,425.657196 273.264435,426.057587 274.656311,426.581848 
	C276.490326,410.397278 278.324310,394.212677 280.200317,377.657623 
	C287.695770,377.657623 295.082733,377.657623 303.455048,377.657623 
	C298.206055,410.022186 292.982910,442.227386 287.666779,475.005798 
	C280.255402,475.005798 272.973969,475.005798 265.220825,475.005768 
z"/>
<path fill="#F82C88" opacity="1.000000" stroke="none" 
	d="
M382.315125,385.389374 
	C375.338867,415.381134 368.479889,444.971466 361.578217,474.746033 
	C353.712952,474.746033 346.113922,474.746033 337.944244,474.746033 
	C342.360687,455.551086 346.715393,436.526855 351.118805,417.513885 
	C355.503693,398.580963 359.937408,379.659332 364.437836,360.354797 
	C372.120605,360.354797 379.843597,360.354797 388.154358,360.354797 
	C386.230682,368.636353 384.331573,376.812164 382.315125,385.389374 
z"/>
<path fill="#F8308B" opacity="1.000000" stroke="none" 
	d="
M416.753021,404.284943 
	C428.594208,408.534485 431.862427,416.514771 431.095398,428.552338 
	C430.569611,436.803864 428.727692,441.775574 421.115051,445.503754 
	C412.046906,449.944794 403.672119,455.800964 394.986572,461.026794 
	C394.730713,461.180756 394.358490,461.141327 393.344299,461.303101 
	C393.344299,454.326721 393.197632,447.445129 393.480865,440.581238 
	C393.531250,439.360474 395.149506,437.846466 396.415955,437.094879 
	C402.412170,433.536041 408.537506,430.194702 415.611389,426.216522 
	C409.640289,422.880920 404.423798,419.559753 398.860626,416.988708 
	C394.454163,414.952271 392.765076,412.257141 393.210083,407.388214 
	C393.690125,402.136292 393.318665,396.806610 393.318665,390.275055 
	C401.556305,395.193634 409.002197,399.639465 416.753021,404.284943 
z"/>
<path fill="#F82F8A" opacity="1.000000" stroke="none" 
	d="
M91.818436,429.267700 
	C96.474388,431.896271 100.728256,434.525665 105.196823,436.717346 
	C108.033821,438.108826 108.893936,439.985504 108.786087,443.015717 
	C108.575539,448.931213 108.724327,454.859528 108.724327,461.419800 
	C107.127106,460.763092 106.210838,460.515869 105.428986,460.045319 
	C95.175522,453.874359 84.858345,447.801025 74.783035,441.350403 
	C73.099411,440.272430 71.662300,437.574249 71.531952,435.533997 
	C71.119125,429.071960 71.249771,422.562469 71.472916,416.081726 
	C71.527168,414.506134 72.303467,412.265503 73.491684,411.526001 
	C84.764847,404.510101 96.198730,397.752441 108.673958,390.267944 
	C108.673958,398.295715 108.825668,405.472565 108.514389,412.629303 
	C108.466347,413.733887 106.428635,414.981415 105.078827,415.760437 
	C99.084549,419.219940 93.005669,422.532898 86.501450,426.152588 
	C88.652283,427.411804 90.079758,428.247528 91.818436,429.267700 
z"/>
<path fill="none" opacity="1.000000" stroke="none" 
	d="
M150.228546,403.277100 
	C150.227676,418.557373 150.302933,433.374359 150.126114,448.188354 
	C150.080276,452.029053 150.573792,457.303772 145.129257,457.570007 
	C139.603638,457.840210 139.449539,452.375031 139.375427,448.680634 
	C139.061737,433.040588 139.228088,417.390564 139.275360,401.744354 
	C139.278793,400.605347 139.389038,399.182373 140.048691,398.390381 
	C141.317383,396.867126 143.106827,394.562042 144.512497,394.674683 
	C146.289032,394.817078 148.194107,396.820038 149.470795,398.465088 
	C150.265442,399.489044 150.000259,401.335449 150.228546,403.277100 
z"/>
<path fill="none" opacity="1.000000" stroke="none" 
	d="
M205.484222,400.793365 
	C205.753799,399.563019 205.651367,398.443115 206.150558,397.998108 
	C207.839554,396.492493 209.913101,393.987244 211.515320,394.208862 
	C213.192642,394.440857 215.568283,397.271088 215.760040,399.156708 
	C216.325699,404.719299 215.962036,410.376373 215.962036,416.422974 
	C212.600800,416.422974 209.251175,416.422974 205.387924,416.422974 
	C205.387924,411.360352 205.387924,406.286713 205.484222,400.793365 
z"/>
</svg>